

<svg id="visual" viewBox="0 0 900 600" width="900" height="600" xmlns="http://www.w3.org/2000/svg" xmlns:xlink="http://www.w3.org/1999/xlink" version="1.1"><rect x="0" y="0" width="900" height="600" fill="#DB3E5B"></rect><path d="M0 426L21.5 435.8C43 445.7 86 465.3 128.8 474.7C171.7 484 214.3 483 257.2 475C300 467 343 452 385.8 453.5C428.7 455 471.3 473 514.2 482.5C557 492 600 493 642.8 480.2C685.7 467.3 728.3 440.7 771.2 444.2C814 447.7 857 481.3 878.5 498.2L900 515L900 601L878.5 601C857 601 814 601 771.2 601C728.3 601 685.7 601 642.8 601C600 601 557 601 514.2 601C471.3 601 428.7 601 385.8 601C343 601 300 601 257.2 601C214.3 601 171.7 601 128.8 601C86 601 43 601 21.5 601L0 601Z" fill="#322D49" stroke-linecap="round" stroke-linejoin="miter"></path></svg>